# xmcd CD database file
#
# Track frame offsets:
#	150
#	36577
#	60465
#	86737
#	109162
#	134167
#
# Disc length: 2260 seconds
#
# Revision: 0
# Processed by: cddbd v1.5.2PL0 Copyright (c) Steve Scherf et al.
# Submitted via: CDex 1.70beta3
#
DISCID=5708d206
DTITLE=Tina Brooks - True Blue
DYEAR=1960
DGENRE=Jazz
TTITLE0=Good Old Soul
TTITLE1=Up Tight's Creek
TTITLE2=Theme For Doris
TTITLE3=True Blue
TTITLE4=Miss Hazel
TTITLE5=Nothing Ever Changes My Love For You
EXTD=YEAR: 1960
EXTT0=
EXTT1=
EXTT2=
EXTT3=
EXTT4=
EXTT5=
PLAYORDER=
